<svg width="40" height="40" viewBox="0 0 40 40" fill="none" xmlns="http://www.w3.org/2000/svg">
  <path d="M20 2c-2 0-4 1-5 3-1-2-3-3-5-3-3 0-6 3-6 6 0 2 1 4 3 5-2 1-3 3-3 5 0 3 3 6 6 6 2 0 4-1 5-3 1 2 3 3 5 3 3 0 6-3 6-6 0-2-1-4-3-5 2-1 3-3 3-5 0-3-3-6-6-6z" fill="white"/>
  <circle cx="20" cy="20" r="8" fill="none" stroke="white" stroke-width="2"/>
  <path d="M20 12v16M12 20h16" stroke="white" stroke-width="2"/>
  <circle cx="20" cy="20" r="3" fill="white"/>
  <path d="M15 15l10 10M25 15l-10 10" stroke="white" stroke-width="1" opacity="0.7"/>
</svg>